<svg width="180" height="180" viewBox="0 0 180 180" fill="none" xmlns="http://www.w3.org/2000/svg">
<rect width="180" height="180" rx="8" fill="url(#paint0_linear_18_14)"/>
<path fill-rule="evenodd" clip-rule="evenodd" d="M33.75 58.3594C33.75 57.427 34.1204 56.5328 34.7797 55.8735C35.439 55.2141 36.3332 54.8438 37.2656 54.8438H40.7812C56.2641 54.8438 67.6898 63.5625 75.0516 71.8453C78.4969 75.7266 81.1336 79.5937 82.9688 82.6172C84.7969 79.5937 87.4406 75.7266 90.8859 71.8453C98.2477 63.5625 109.673 54.8438 125.156 54.8438V61.875C112.514 61.875 102.846 68.9766 96.1453 76.5141C92.5208 80.6169 89.4089 85.1455 86.8781 90C89.4067 94.8541 92.5162 99.3827 96.1383 103.486C102.853 111.023 112.528 118.125 125.156 118.125V125.156C109.673 125.156 98.2477 116.437 90.8859 108.155C87.9295 104.808 85.2798 101.203 82.9688 97.3828C81.1406 100.406 78.4969 104.273 75.0516 108.155C67.6898 116.437 56.2641 125.156 40.7812 125.156H37.2656C36.3332 125.156 35.439 124.786 34.7797 124.127C34.1204 123.467 33.75 122.573 33.75 121.641C33.75 120.708 34.1204 119.814 34.7797 119.155C35.439 118.495 36.3332 118.125 37.2656 118.125H40.7812C53.4234 118.125 63.0914 111.023 69.7922 103.486C73.4167 99.3831 76.5286 94.8545 79.0594 90C76.5308 85.1459 73.4213 80.6173 69.7992 76.5141C63.0844 68.9766 53.4094 61.875 40.7812 61.875H37.2656C36.3332 61.875 35.439 61.5046 34.7797 60.8453C34.1204 60.186 33.75 59.2918 33.75 58.3594Z" fill="white"/>
<path d="M125.156 72.1828V44.5359C125.156 44.2019 125.252 43.8749 125.431 43.5931C125.61 43.3112 125.866 43.0863 126.169 42.9447C126.471 42.803 126.808 42.7505 127.139 42.7932C127.47 42.8359 127.782 42.9722 128.039 43.1859L144.633 57.0094C145.477 57.7125 145.477 59.0063 144.633 59.7094L128.039 73.5328C127.782 73.7466 127.47 73.8828 127.139 73.9255C126.808 73.9683 126.471 73.9157 126.169 73.7741C125.866 73.6324 125.61 73.4075 125.431 73.1257C125.252 72.8439 125.156 72.5168 125.156 72.1828ZM125.156 135.464V107.817C125.156 107.483 125.252 107.156 125.431 106.874C125.61 106.593 125.866 106.368 126.169 106.226C126.471 106.084 126.808 106.032 127.139 106.074C127.47 106.117 127.782 106.253 128.039 106.467L144.633 120.291C145.477 120.994 145.477 122.288 144.633 122.991L128.039 136.814C127.782 137.028 127.47 137.164 127.139 137.207C126.808 137.25 126.471 137.197 126.169 137.055C125.866 136.914 125.61 136.689 125.431 136.407C125.252 136.125 125.156 135.798 125.156 135.464Z" fill="white"/>
<circle cx="46.4062" cy="90" r="11.1562" stroke="white" stroke-width="3"/>
<defs>
<linearGradient id="paint0_linear_18_14" x1="180" y1="180" x2="0" y2="0" gradientUnits="userSpaceOnUse">
<stop stop-color="#5F29FF"/>
<stop offset="1" stop-color="#F358FF"/>
</linearGradient>
</defs>
</svg>
